<svg width="179" height="64" viewBox="0 0 179 64" fill="none" xmlns="http://www.w3.org/2000/svg">
<rect width="178" height="64" transform="translate(0.891846)" fill="white"/>
<g clip-path="url(#clip0_1178_7393)">
<path d="M117.521 24.5933H109.778V39.4546H125.259L133 31.6342H117.521V24.5933Z" fill="#5F6062"/>
<path d="M117.521 16L109.778 23.8182H125.259V30.8613H133V16H117.521Z" fill="#5F6062"/>
<path d="M57.5282 24.5952V29.7464H54.9458V24.5952H53.8788V35.8969H47.0695V26.1279H51.9583V25.1352H46.0046V36.8897H53.0511L53.8788 36.0558V38.5291H54.9458V30.7414H57.5282V38.5291H58.5973V24.5952H57.5282Z" fill="#5F6062"/>
<path d="M73.4595 24.5952H72.3947V35.6574H73.4595V24.5952ZM66.413 25.8079L69.2239 32.6333H70.3383L70.2348 32.3808L67.1438 24.8151H64.1044L60.9099 32.6355H62.0243L64.8352 25.8101H66.413V25.8079ZM64.6972 38.4659V34.0746H63.6302V39.4587H73.7117V38.4659H64.6972Z" fill="#5F6062"/>
<path d="M86.1385 34.3034C85.6837 34.0204 85.1535 33.8027 84.5564 33.6459C83.9507 33.4892 83.2954 33.413 82.5776 33.413C81.8598 33.413 81.2045 33.4913 80.5988 33.6459C80.0017 33.8027 79.4757 34.0204 79.036 34.3012C78.5877 34.5995 78.2385 34.9544 77.9906 35.3768C77.7384 35.8013 77.609 36.2825 77.609 36.8072C77.609 37.3427 77.7384 37.8261 77.9906 38.2528C78.2385 38.673 78.5877 39.0322 79.0339 39.3261C79.4779 39.6135 80.0039 39.8247 80.6031 39.9684C81.2067 40.1143 81.8619 40.1861 82.5776 40.1861C83.2932 40.1861 83.9485 40.1121 84.5521 39.9684C85.1491 39.8247 85.6816 39.6135 86.1342 39.3305C86.5826 39.0344 86.9361 38.6752 87.1883 38.255C87.447 37.8304 87.5741 37.3449 87.5741 36.8093C87.5741 36.2846 87.4448 35.8013 87.1883 35.3768C86.9339 34.9566 86.5826 34.5995 86.1385 34.3034ZM86.1364 37.9698C85.8928 38.2767 85.5867 38.5228 85.2052 38.7035C84.8193 38.8994 84.3969 39.0366 83.927 39.1106C83.4527 39.1868 83.0001 39.226 82.5776 39.226C82.1184 39.226 81.655 39.1868 81.1873 39.1106C80.7217 39.0344 80.3078 38.8972 79.9349 38.7057C79.5663 38.5162 79.2688 38.2615 79.0382 37.948C78.814 37.6454 78.6954 37.2665 78.6933 36.7919C78.6933 36.3391 78.814 35.9733 79.0446 35.6707C79.2839 35.3528 79.5835 35.1024 79.9543 34.9087C80.3358 34.7149 80.7583 34.5756 81.2261 34.4863C81.6938 34.3992 82.1465 34.3557 82.5797 34.3557C83.013 34.3557 83.4527 34.3992 83.9248 34.4863C84.399 34.5777 84.8237 34.7171 85.2052 34.9108C85.5867 35.1133 85.895 35.3702 86.1385 35.6903C86.3713 35.9929 86.4899 36.363 86.4899 36.8268C86.4899 37.3014 86.3692 37.6737 86.1385 37.9719L86.1364 37.9698ZM77.4043 30.2495H78.592L81.4739 25.8234H83.8407L86.8283 30.2495H88.0376L85.0478 25.8234H88.2402V24.8306H77.1736V25.8234H80.2841L77.4021 30.2495H77.4043ZM75.3845 31.3033V32.2961H89.9689V31.3033H75.3845Z" fill="#5F6062"/>
<path d="M95.0367 34.1878H96.1037V31.2987H102.904V32.7378H98.6989V33.7154H102.904V35.8947H103.98V24.5952H102.904V30.3059H99.0201L99.9362 29.3741V24.8303H92.5298V25.8406H98.8692V30.3037H90.939V31.2965H95.0367V34.1856V34.1878ZM95.0819 38.4659V34.7321H94.0149V39.4587H104.196V38.4659H95.0819Z" fill="#5F6062"/>
<path d="M49.3435 42.8686C49.0159 42.579 48.5718 42.4375 48.0243 42.4375H46.0002V47.9327H48.0286C48.5912 47.9327 49.0439 47.765 49.3607 47.4254C49.6776 47.0879 49.835 46.6394 49.8328 46.0995V44.3099C49.8328 43.6524 49.6776 43.1669 49.3435 42.8686ZM49.3392 44.3164V46.0973C49.3392 46.5153 49.2314 46.8441 49.0202 47.0966C48.8154 47.3405 48.477 47.4711 47.979 47.4711H46.4852V42.8882H47.979C48.4597 42.8882 48.8003 42.9992 49.0115 43.2082C49.2228 43.4085 49.3392 43.7743 49.3392 44.3164Z" fill="#5F6062"/>
<path d="M53.3829 44.2466C53.1803 44.0463 52.9173 43.9461 52.6134 43.9483H52.0443C51.9473 43.9483 51.8525 43.9483 51.7555 43.9548C51.6585 43.9592 51.568 43.9657 51.4839 43.97C51.402 43.9809 51.3136 43.9875 51.2123 43.9918L51.1261 43.9962V44.399H52.5638C52.7686 44.399 52.9173 44.4556 53.0294 44.5666C53.135 44.6711 53.1976 44.8518 53.1976 45.1218V45.5245H52.053C51.6089 45.5245 51.2554 45.6421 51.0118 45.8838C50.7726 46.1211 50.6519 46.4194 50.6519 46.7612C50.6519 47.103 50.7704 47.4187 51.0054 47.6495C51.236 47.8781 51.527 47.9978 51.8568 47.9978H51.8611C51.9279 47.9978 52.04 47.9956 52.1995 47.9891C52.3612 47.9847 52.5229 47.976 52.6867 47.9673C52.8484 47.9564 53.0574 47.9434 53.3096 47.9281H53.6912V45.0913C53.6912 44.7364 53.592 44.4447 53.3851 44.2444L53.3829 44.2466ZM53.1954 45.9709V47.4992C52.9885 47.5123 52.8139 47.5188 52.6759 47.5232C52.5121 47.5341 52.3547 47.5406 52.206 47.5471C52.0551 47.5515 51.9517 47.5537 51.8935 47.5537C51.693 47.5537 51.5184 47.4862 51.3567 47.3447C51.208 47.2119 51.1325 47.0333 51.1304 46.7786C51.1304 46.7721 51.1304 46.7655 51.1304 46.7568C51.1304 46.5173 51.2101 46.3388 51.374 46.1908C51.5335 46.0492 51.7792 45.9709 52.1219 45.9709H53.1932H53.1954Z" fill="#5F6062"/>
<path d="M54.8853 47.9327H55.3854V43.9985H54.8853V47.9327ZM55.3833 43.0863V42.4375H54.8767V43.5413L55.3833 43.0885V43.0863Z" fill="#5F6062"/>
<path d="M59.0928 46.0207C58.8794 45.8378 58.5906 45.7268 58.2284 45.6811L57.8404 45.6441C57.4934 45.6049 57.2541 45.5374 57.1313 45.4547C57.0192 45.3785 56.9567 45.2457 56.9545 45.0149C56.9567 44.7732 57.0321 44.636 57.183 44.5533C57.3511 44.464 57.5775 44.414 57.862 44.4096H59.2071V44.0003H59.1187C58.9182 43.9938 58.7501 43.9851 58.6121 43.9764C58.4763 43.972 58.3384 43.9677 58.194 43.9611C58.0517 43.9568 57.9396 43.9546 57.8577 43.9546C57.6702 43.9546 57.4912 43.9742 57.3274 44.0134C57.1593 44.0526 57.0127 44.1135 56.8834 44.2006C56.7519 44.2942 56.6484 44.4074 56.573 44.5424C56.4954 44.6818 56.4587 44.8494 56.4587 45.0388C56.4587 45.3828 56.5751 45.655 56.8187 45.8095C57.0472 45.9554 57.3511 46.0447 57.7305 46.086L58.0926 46.123C58.3815 46.1557 58.5884 46.2341 58.7156 46.3473C58.8428 46.4583 58.9053 46.6042 58.9053 46.811C58.9031 47.0919 58.8126 47.253 58.6337 47.3488C58.4375 47.4511 58.1767 47.5056 57.8512 47.5056H56.5859V47.9345L56.6721 47.9388C56.8748 47.9475 57.0429 47.9562 57.1765 47.9606C57.3102 47.9649 57.4417 47.9693 57.5732 47.9715C57.7046 47.9736 57.8016 47.9758 57.8663 47.9758C58.0732 47.9758 58.2694 47.9562 58.4548 47.9192C58.6423 47.88 58.8061 47.8125 58.9462 47.7146C59.0885 47.6188 59.2049 47.4947 59.289 47.3423C59.3752 47.1877 59.414 47.0026 59.414 46.7871C59.414 46.4714 59.3062 46.2058 59.0907 46.0207H59.0928Z" fill="#5F6062"/>
<path d="M63.3954 44.6974C63.32 44.5385 63.2187 44.4013 63.098 44.2881C62.9751 44.1792 62.835 44.0965 62.6798 44.0377C62.5246 43.9789 62.3672 43.9485 62.2077 43.9485C62.0957 43.9485 61.962 43.9746 61.8025 44.0203C61.6451 44.066 61.4921 44.1161 61.3412 44.1727C61.2227 44.2162 61.0847 44.2707 60.9295 44.3338V42.4375H60.4531V47.9327H60.9295V44.7932C61.1213 44.7192 61.2852 44.6582 61.4188 44.6081C61.5632 44.5602 61.7141 44.5123 61.8672 44.4688C62.0181 44.4253 62.1344 44.4057 62.2099 44.4057C62.419 44.4057 62.6044 44.4797 62.779 44.6386C62.9471 44.7932 63.029 44.9935 63.0312 45.2635V47.9348H63.5162V45.2548C63.5162 45.0501 63.4774 44.8629 63.3998 44.6996L63.3954 44.6974Z" fill="#5F6062"/>
<path d="M64.7037 47.9305H65.2038V43.9964H64.7037V47.9305ZM65.2016 43.0863V42.4375H64.6951V43.5413L65.2016 43.0863Z" fill="#5F6062"/>
<path d="M69.4999 44.6972C69.4245 44.5383 69.3253 44.4011 69.2024 44.2879C69.0796 44.179 68.9395 44.0963 68.7843 44.0375C68.6291 43.9787 68.4717 43.9482 68.3122 43.9482C68.2001 43.9482 68.0665 43.9744 67.9048 44.0201C67.7474 44.0658 67.5944 44.1159 67.4435 44.1703C67.325 44.2139 67.187 44.2683 67.0318 44.3292V43.9961H66.5554V47.9303H67.0318V44.7886C67.2236 44.7146 67.3875 44.6536 67.5211 44.6036C67.6655 44.5557 67.8164 44.5078 67.9695 44.4642C68.1203 44.4207 68.2367 44.3989 68.3122 44.4011C68.5213 44.4011 68.7067 44.4773 68.8813 44.6362C69.0494 44.7908 69.1313 44.9911 69.1335 45.2611V47.9325H69.6185V45.2524C69.6185 45.0477 69.5797 44.8605 69.5021 44.6972H69.4999Z" fill="#5F6062"/>
<path d="M75.6322 45.6638C75.546 45.4983 75.4274 45.3655 75.2765 45.261C75.1278 45.1609 74.9532 45.0825 74.7506 45.0259C74.5523 44.9693 74.3346 44.9214 74.1018 44.8822C73.8711 44.8474 73.6685 44.8082 73.4939 44.7646C73.3236 44.7211 73.1835 44.6623 73.0693 44.5905C72.9593 44.5186 72.8796 44.4272 72.8235 44.3096C72.7696 44.192 72.7395 44.0135 72.7395 43.8045V43.7806C72.7395 43.4366 72.8408 43.1993 73.0262 43.0664C73.2245 42.9249 73.5306 42.8487 73.9444 42.8487H75.4943V42.4394L75.408 42.4351C75.2054 42.4242 75.0287 42.4176 74.8799 42.4133C74.7312 42.4089 74.5738 42.4024 74.4036 42.3937C74.2311 42.385 74.0759 42.3828 73.938 42.3828C73.4314 42.3828 73.024 42.4851 72.7158 42.6963C72.3989 42.914 72.2458 43.3103 72.2458 43.8045C72.2458 44.0897 72.2868 44.3401 72.373 44.5251C72.4592 44.7059 72.5843 44.8517 72.7459 44.9606C72.9033 45.0673 73.093 45.1478 73.3085 45.2001C73.5198 45.2523 73.7504 45.3002 74.0048 45.3394C74.2225 45.3786 74.4165 45.42 74.5803 45.4635C74.742 45.507 74.8735 45.5637 74.9769 45.6311C75.0761 45.7008 75.1494 45.7879 75.2011 45.8924C75.2507 45.9947 75.2765 46.1515 75.2765 46.33C75.2765 46.785 75.1709 47.0942 74.9877 47.251C74.7959 47.4164 74.5027 47.5057 74.0953 47.5057H72.3838V47.9302L72.47 47.9346C72.7028 47.9433 72.9011 47.952 73.0714 47.9564C73.2374 47.9672 73.4163 47.9738 73.606 47.976C73.7935 47.9803 73.9595 47.9803 74.1039 47.9803C74.6256 47.9803 75.0373 47.8627 75.3283 47.6124C75.6257 47.3555 75.7637 46.9026 75.7637 46.3104C75.7637 46.0622 75.7227 45.838 75.6344 45.6682L75.6322 45.6638Z" fill="#5F6062"/>
<path d="M79.715 45.3939C79.715 44.928 79.5792 44.56 79.2947 44.3118C79.0145 44.068 78.6329 43.9482 78.1652 43.9482C77.9626 43.9482 77.7686 43.9809 77.581 44.044C77.3935 44.1072 77.2275 44.1986 77.0853 44.3227C76.9387 44.4446 76.8201 44.6014 76.7361 44.7843C76.6498 44.9693 76.6089 45.1827 76.6089 45.4178V46.0623C76.6089 46.6523 76.721 47.1182 76.9559 47.4578C77.1952 47.804 77.6048 47.9738 78.1458 47.9738H78.1523C78.2363 47.9738 78.3527 47.9738 78.5015 47.9695C78.6502 47.9651 78.7968 47.9629 78.9412 47.9564C79.0856 47.9521 79.2624 47.9455 79.4758 47.9346L79.562 47.9303V47.5123H78.1609C77.7492 47.5101 77.4905 47.386 77.3418 47.1465C77.1973 46.9135 77.1154 46.5739 77.1047 46.1319H79.7172V45.3939H79.715ZM77.1025 45.6704V45.4309C77.1025 45.1043 77.1995 44.8627 77.3892 44.6819C77.581 44.5012 77.8354 44.4054 78.1695 44.4011C78.5209 44.4011 78.7795 44.4817 78.9584 44.6341C79.1309 44.7799 79.2257 45.0281 79.2257 45.4026V45.6726H77.1047L77.1025 45.6704Z" fill="#5F6062"/>
<path d="M82.8794 43.9766C83.0044 43.9853 83.1725 43.994 83.3795 43.9984H83.4679V44.4207H82.3103C81.9094 44.4207 81.6033 44.5122 81.3856 44.682C81.1744 44.8475 81.0623 45.1152 81.0623 45.518V46.4128C81.0623 46.8483 81.1808 47.1182 81.3964 47.2663C81.627 47.423 81.9288 47.5036 82.3125 47.5036H83.4916V47.9303L83.4053 47.9347C83.207 47.9434 83.0454 47.9521 82.916 47.9564C82.7824 47.963 82.6531 47.9652 82.5302 47.9673C82.4052 47.9695 82.3189 47.9717 82.2694 47.9717C81.7779 47.9717 81.3662 47.8541 81.0515 47.6125C80.726 47.3621 80.5708 46.9484 80.5708 46.3976V45.518C80.5708 45.0086 80.726 44.6036 81.045 44.3402C81.3576 44.0789 81.7693 43.9526 82.2694 43.9526C82.2694 43.9526 82.7522 43.9679 82.8837 43.9766H82.8794Z" fill="#5F6062"/>
<path d="M86.9208 43.9985V47.1576C86.7247 47.236 86.5608 47.2991 86.4272 47.3427C86.2785 47.3971 86.1297 47.445 85.9788 47.4885C85.8301 47.5299 85.7159 47.5495 85.6404 47.5495C85.4227 47.5495 85.2373 47.482 85.0692 47.3427C84.914 47.212 84.8299 47.0052 84.8278 46.6917V44.0007H84.3428V46.6982C84.3428 46.9225 84.3773 47.1184 84.4506 47.2861C84.5217 47.4493 84.6187 47.5865 84.7437 47.6954C84.8666 47.8042 85.0088 47.8826 85.1662 47.9305C85.3192 47.9784 85.4787 48.0023 85.6404 48.0023C85.7482 48.0023 85.8775 47.9784 86.037 47.9348C86.1944 47.8913 86.3496 47.8434 86.5005 47.7868C86.6212 47.7433 86.7591 47.6867 86.9187 47.6213V47.9348H87.4036V44.0007H86.9187L86.9208 43.9985Z" fill="#5F6062"/>
<path d="M90.107 43.9985C89.872 43.9985 89.6457 44.0312 89.4301 44.0965C89.2663 44.1466 89.1089 44.2228 88.9624 44.3295V43.9985H88.4558V47.9327H88.9624V44.828C89.1585 44.7018 89.3396 44.6103 89.5077 44.5581C89.6845 44.5015 89.8871 44.4732 90.1177 44.4732H90.6825V43.9985H90.1113H90.107Z" fill="#5F6062"/>
<path d="M91.3981 47.9305H91.8982V43.9964H91.3981V47.9305ZM91.8982 43.0863V42.4375H91.3916V43.5413L91.8982 43.0885V43.0863Z" fill="#5F6062"/>
<path d="M95.1122 44.4666V43.9985H93.8533V42.8882L93.3532 43.3585V44.0007H92.7454V44.4688H93.3532V46.6242C93.3532 47.0335 93.4373 47.3601 93.6162 47.5909C93.8037 47.8282 94.1141 47.9349 94.5215 47.9349H95.1122V47.4755H94.5323C94.2348 47.4755 94.0689 47.3949 93.9913 47.2665C93.9029 47.1184 93.8512 46.892 93.8512 46.5872V44.4688H95.11L95.1122 44.4666Z" fill="#5F6062"/>
<path d="M96.427 43.0863V42.4375H95.9204V43.5413L96.427 43.0885V43.0863ZM95.9269 47.9327H96.427V43.9985H95.9269V47.9327Z" fill="#5F6062"/>
<path d="M100.507 45.3939C100.507 44.928 100.369 44.5578 100.087 44.3118C99.8067 44.068 99.4252 43.9482 98.9574 43.9482C98.7548 43.9482 98.5608 43.9809 98.3733 44.044C98.1857 44.1072 98.0198 44.2008 97.8775 44.3227C97.7288 44.4468 97.6124 44.6014 97.5283 44.7843C97.4421 44.9693 97.4011 45.1827 97.4011 45.4178V46.0623C97.4011 46.6523 97.5111 47.1182 97.746 47.4578C97.9853 47.804 98.3948 47.9738 98.9359 47.9738H98.9445C99.0286 47.9738 99.145 47.9738 99.2937 47.9695C99.4424 47.9651 99.589 47.9629 99.7313 47.9564C99.8757 47.9521 100.052 47.9433 100.266 47.9346L100.352 47.9303V47.5123H98.951C98.5371 47.5123 98.2806 47.386 98.1319 47.1487C97.9874 46.9157 97.9034 46.5761 97.8947 46.1341H100.507V45.3961V45.3939ZM97.8947 45.6704V45.4309C97.8947 45.1043 97.9917 44.8627 98.1814 44.6819C98.3733 44.5012 98.6276 44.4054 98.9617 44.4011C99.3131 44.4011 99.5718 44.4817 99.7507 44.6341C99.9231 44.7799 100.018 45.0281 100.018 45.4026V45.6726H97.8969L97.8947 45.6704Z" fill="#5F6062"/>
<path d="M103.864 46.0188C103.65 45.8359 103.361 45.7249 102.999 45.6791L102.611 45.6421C102.264 45.6051 102.025 45.5354 101.902 45.4527C101.79 45.3765 101.727 45.2437 101.725 45.0129C101.727 44.7713 101.803 44.6341 101.954 44.5514C102.122 44.4621 102.348 44.412 102.633 44.4077H103.978V43.9984H103.889C103.689 43.9918 103.521 43.9831 103.383 43.9744C103.247 43.9701 103.109 43.9657 102.965 43.9592C102.82 43.9548 102.71 43.9526 102.628 43.9526C102.441 43.9526 102.262 43.9722 102.098 44.0114C101.93 44.0506 101.783 44.1116 101.654 44.1987C101.523 44.2923 101.419 44.4055 101.344 44.5405C101.266 44.6798 101.229 44.8475 101.229 45.0369C101.229 45.3809 101.346 45.6508 101.589 45.8054C101.818 45.9513 102.122 46.0405 102.501 46.0819L102.863 46.1189C103.152 46.1516 103.359 46.23 103.486 46.3432C103.614 46.4542 103.676 46.6001 103.676 46.8069C103.674 47.0878 103.583 47.2489 103.404 47.3447C103.208 47.447 102.947 47.5014 102.622 47.5014H101.357V47.9303L101.443 47.9347C101.646 47.9434 101.811 47.9521 101.947 47.9564C102.081 47.9608 102.212 47.9652 102.344 47.9673C102.475 47.9695 102.572 47.9717 102.637 47.9717C102.844 47.9717 103.04 47.9521 103.226 47.9151C103.413 47.8759 103.577 47.8084 103.717 47.7104C103.859 47.6146 103.976 47.4884 104.06 47.3381C104.146 47.1836 104.185 46.9985 104.185 46.783C104.185 46.4673 104.077 46.2038 103.861 46.0188H103.864Z" fill="#5F6062"/>
</g>
<defs>
<clipPath id="clip0_1178_7393">
<rect width="87" height="32" fill="white" transform="translate(46 16)"/>
</clipPath>
</defs>
</svg>
